<?xml version="1.0" encoding="UTF-8"?>
<svg width="69px" height="80px" viewBox="0 0 69 80" version="1.1" xmlns="http://www.w3.org/2000/svg" xmlns:xlink="http://www.w3.org/1999/xlink">
    <title>Group 16</title>
    <g id="User-Flow-1-Complete" stroke="none" stroke-width="1" fill="none" fill-rule="evenodd">
        <g id="01-Homepage" transform="translate(-535.000000, -357.000000)" fill-rule="nonzero">
            <g id="Group-16" transform="translate(535.000000, 357.000000)">
                <g id="Raggruppa_730" transform="translate(-0.000000, 8.730853)" fill="#DDDDDD">
                    <path d="M0.535101373,1.4774846 C-2.03703748,17.5417067 5.004823,32.6410523 14.3508916,45.1365125 C23.8325008,57.766163 36.6994981,68.0634947 52.5484135,70.3990032 C55.1205504,70.8111509 56.204884,66.8302427 53.6327448,66.418095 C39.9524988,64.5011208 28.5764568,56.2581418 19.9049456,45.6860458 C10.2877944,33.8647203 1.89051764,18.5033884 4.45950432,2.71393127 C4.86612928,-0.0305331341 0.938574162,-1.12001202 0.531949316,1.4774846 L0.535101373,1.4774846 Z" id="Tracciato_756"></path>
                </g>
                <g id="Raggruppa_732" transform="translate(0.580032, 0.000000)" fill="#DDDDDD">
                    <path d="M3.48590135,9.99282526 C7.32600665,6.9938777 11.7917802,4.94297006 16.534729,4.00014665 C19.0633065,3.45506973 18.000438,-0.49356988 15.4687588,0.0515071594 C10.0852095,1.17273741 5.02708822,3.54879184 0.687732306,6.9949013 C-1.31095999,8.76640159 1.48720932,11.6248868 3.47660536,9.98965596 L3.48590135,9.99282526 Z" id="Tracciato_757"></path>
                </g>
                <g id="Raggruppa_734" transform="translate(16.240887, 0.000000)" fill="#DDDDDD">
                    <path d="M1.49386909,4.07751882 C13.6619522,7.38907407 24.7226874,21.7434296 31.7231536,31.68131 C38.9158934,42.01445 44.452495,53.42602 48.1296989,65.4970763 C48.9506619,67.9799361 52.9027415,67.0163444 52.0945092,64.3921528 C47.9358619,50.5388568 41.3628154,37.5452891 32.6841251,26.0217938 C25.3018169,16.2220303 14.7724796,3.3869424 2.60439771,0.0753869331 C1.50954571,-0.229728852 0.376954429,0.418833568 0.0746839485,1.52399179 C-0.227586532,2.62914979 0.414927535,3.77240284 1.50977927,4.07751882 L1.49386909,4.07751882 Z" id="Tracciato_758"></path>
                </g>
                <g id="Raggruppa_736" transform="translate(50.462758, 64.608315)" fill="#DDDDDD">
                    <path d="M3.14748051,14.3346664 C8.48922963,11.7506184 13.1839531,8.06276267 16.9022222,3.52987093 C18.5722089,1.50279328 15.6497314,-1.33197259 13.9894527,0.701390488 C10.5611295,4.96667168 6.18870125,8.42848255 1.19592559,10.8304927 C-1.44498479,12.0467398 0.778428683,15.4220587 3.1377713,14.340952 L3.14748051,14.3346664 Z" id="Tracciato_759"></path>
                </g>
                <g id="Raggruppa_738" transform="translate(10.440571, 2.328228)" fill="#DDDDDD">
                    <path d="M0.0137388944,1.97806042 C-0.392194453,17.7550896 8.26142363,33.5289268 17.4562857,45.7368119 C26.1099039,57.2583156 38.2784655,66.0407146 53.1532461,65.7661641 C54.242269,65.7226365 55.1030111,64.8143245 55.1030111,63.7086394 C55.1030111,62.6029542 54.242269,61.6946435 53.1532461,61.6511088 C38.1431529,61.9256626 26.5158373,52.0482592 18.4034634,40.1149267 C10.9676455,29.00205 3.79930357,15.8332409 4.06992548,1.97806042 C4.02702062,0.873232848 3.13170018,0 2.04183216,0 C0.951964469,0 0.0566440825,0.873232848 0.0137388944,1.97806042 L0.0137388944,1.97806042 Z" id="Tracciato_760"></path>
                </g>
                <g id="Raggruppa_740" transform="translate(2.900158, 19.207877)" fill="#DDDDDD">
                    <path d="M3.14975358,9.78035058 C5.06344963,7.3121875 7.41386438,5.2839907 10.0624692,3.8153003 C12.2405708,2.70492329 10.3187166,-0.900575025 8.14061513,0.209802229 C5.16218673,1.73347225 2.5372446,3.96159749 0.459157698,6.73004109 C-1.07832564,8.81199801 1.61227024,11.8623077 3.14081477,9.78035058 L3.14975358,9.78035058 Z" id="Tracciato_761"></path>
                </g>
                <g id="Raggruppa_742" transform="translate(1.160063, 11.059081)" fill="#DDDDDD">
                    <path d="M2.79112985,8.35729946 C5.15821711,6.40423201 7.85993199,4.97338396 10.7414474,4.14675304 C11.7851298,3.83645633 12.3976167,2.67379137 12.1094721,1.54986827 C11.8213287,0.425945099 10.7416698,-0.233629578 9.69798724,0.0766669944 C6.52252475,1.07247092 3.52596687,2.63845289 0.834641925,4.70859463 C-1.12184595,6.25365971 0.704209445,9.90236367 2.79112985,8.35729946 L2.79112985,8.35729946 Z" id="Tracciato_762"></path>
                </g>
                <g id="Raggruppa_744" transform="translate(15.080824, 43.654267)" fill="#DDDDDD">
                    <path d="M3.53673317,9.99897422 C6.33005032,7.75042193 9.27234504,5.4987896 12.0718689,3.25023741 C14.0737463,1.66084981 11.2711181,-1.11749814 9.27855184,0.478049845 C6.48523393,2.72660214 3.54294023,4.97823447 0.743415766,7.22678666 C-1.38881636,8.81617374 1.54416675,11.5945223 3.53673317,9.99897422 Z" id="Tracciato_763"></path>
                </g>
                <g id="Raggruppa_746" transform="translate(23.781300, 54.131291)" fill="#DDDDDD">
                    <path d="M2.99002623,9.55781695 L9.49235164,4.02475663 C10.0947705,3.62431938 10.4568328,2.89420735 10.4400088,2.11376932 C10.4231849,1.33333129 10.0300804,0.623363538 9.41109947,0.255507427 C8.79211928,-0.112348734 8.0430689,-0.0811564626 7.45054398,0.337149772 L0.94821914,5.87021105 C0.345800278,6.2706478 -0.0162617325,7.00075983 0.000561781416,7.78119776 C0.0173852956,8.56163618 0.410490397,9.27160344 1.02947095,9.63945933 C1.64845145,10.0073156 2.39750141,9.97612372 2.99002623,9.55781695 Z" id="Tracciato_764"></path>
                </g>
                <g id="Raggruppa_748" transform="translate(38.282092, 63.444201)" fill="#DDDDDD">
                    <path d="M3.24737419,9.88564635 C5.40663274,7.65892639 7.68420561,5.56031875 9.85529511,3.3335988 C11.6300271,1.6284801 8.96792909,-1.24185371 7.19319602,0.58832725 C5.0309806,2.8150475 2.75636491,4.91365483 0.585275571,7.14342569 C-1.18945693,8.84854355 1.47264185,11.7188773 3.24737419,9.88869621 L3.24737419,9.88564635 Z" id="Tracciato_765"></path>
                </g>
                <g id="Raggruppa_750" transform="translate(17.980983, 9.312910)" fill="#DDDDDD">
                    <path d="M0.624186029,3.33656428 C3.22816756,5.7196818 5.69812088,8.23338023 8.30210271,10.6295549 C8.14316068,9.79750919 8.05137125,8.95350122 8.02766303,8.1060635 C5.28646224,12.5948119 3.77704605,18.3469381 7.47878455,22.8356866 C8.81346503,24.4778045 10.6486676,25.6136754 12.6899392,26.0610561 C13.6023891,26.1311341 14.5186907,26.1311341 15.43114,26.0610561 C16.1172392,25.9206791 16.6661165,25.6399299 17.3458325,25.4995537 C24.8865296,24.2361756 26.2587251,27.1840573 21.3220115,34.196299 C18.8552498,35.1756611 19.9498161,39.2465494 22.4197671,38.2639205 C25.0146366,37.5106375 27.1460257,35.6129315 28.2333763,33.0877164 C29.3207269,30.5625028 29.250778,27.672806 28.0425807,25.2057458 C26.5709446,22.6286737 23.9592028,20.9519354 21.0507635,20.7169981 C20.0913745,20.6941154 19.13161,20.7410257 18.1787241,20.8573731 C14.8886451,22.6822521 12.0070323,21.2784982 9.54027056,16.9399196 C9.62001708,14.6544818 10.3866827,12.4497844 11.7357842,10.6262915 C12.1328513,9.80229349 12.0257368,8.81736923 11.4613445,8.10279893 C8.85736357,5.7196818 6.38740996,3.2059826 3.78342871,0.809807418 C1.58791449,-1.43619881 -1.29050637,1.51168439 0.63056832,3.3333001 L0.624186029,3.33656428 Z" id="Tracciato_766"></path>
                </g>
                <g id="Raggruppa_752" transform="translate(41.762282, 41.908096)" fill="#DDDDDD">
                    <path d="M0.483000838,3.52813422 C2.74338832,6.24274529 4.86772004,8.82462834 7.12501544,11.5392401 C8.72058321,13.5775687 11.6426989,10.5911799 9.90798199,8.69506004 C7.65068721,5.9804491 5.52326331,3.39856616 3.26287562,0.683954693 C1.66730785,-1.35437403 -1.12184344,1.63201468 0.479908686,3.52813422 L0.483000838,3.52813422 Z" id="Tracciato_767"></path>
                </g>
                <path d="M12.1348116,4.07439825 C12.9625467,11.8405995 14.7951759,19.4623322 17.5853973,26.7428772 C21.1271694,35.5889566 27.2594741,51.4861637 43.1990305,60.6088821 C50.0610195,64.4561868 57.710348,66.63328 65.5435816,66.9684077 C63.7715669,70.4444977 61.1434961,73.3965606 57.9146646,75.537846 C55.6540253,76.9744965 53.165151,78.0029816 50.5584336,78.5776805 C42.377162,76.1159952 34.6785994,72.2337707 27.8048508,67.1035142 C16.498438,59.1031558 8.03997515,47.6135703 3.68782985,34.3440701 C1.09147085,25.6594184 0.485222588,16.4877731 1.91535881,7.52919398 C5.19078389,6.28430947 8.59304045,5.17774548 12.1348116,4.07439825 Z" id="Tracciato_779" fill="#0CF2B4" opacity="0.15"></path>
            </g>
        </g>
    </g>
</svg>