<?xml version="1.0" encoding="UTF-8"?>
<svg width="96px" height="90px" viewBox="0 0 96 90" version="1.1" xmlns="http://www.w3.org/2000/svg" xmlns:xlink="http://www.w3.org/1999/xlink">
    <title>Group 16 Copy</title>
    <g id="User-Flow-1-Complete" stroke="none" stroke-width="1" fill="none" fill-rule="evenodd">
        <g id="01-Homepage" transform="translate(-906.000000, -286.000000)" fill-rule="nonzero">
            <g id="Group-16-Copy" transform="translate(954.089960, 331.034375) rotate(-285.000000) translate(-954.089960, -331.034375) translate(919.167967, 291.084327)">
                <g id="Raggruppa_730" transform="translate(-0.000000, 8.900096)" fill="#DDDDDD">
                    <path d="M0.543811968,1.48946569 C-2.07019719,17.6839544 5.08629352,32.9057424 14.5845011,45.5025297 C24.2204558,58.2345955 37.2969072,68.6154295 53.4038176,70.9698768 C56.0178248,71.3853667 57.1198096,67.3721769 54.5058002,66.956687 C40.6028616,65.0241678 29.0416358,56.7143456 20.2289662,46.0565193 C10.4552633,34.1393333 1.92129224,18.6534345 4.53209792,2.73593885 C4.94534208,-0.0307807308 0.953852648,-1.12909433 0.5406086,1.48946569 L0.543811968,1.48946569 Z" id="Tracciato_756"></path>
                </g>
                <g id="Raggruppa_732" transform="translate(0.012142, 0.148201)" fill="#DDDDDD">
                    <path d="M3.48958818,9.537847 C7.33375494,6.675443 11.8042517,4.7179142 16.5522168,3.818018 C19.0834686,3.2977587 18.019476,-0.4710974 15.4851192,0.049162013 C10.095876,1.1193421 5.03240508,3.3872136 0.68845968,6.67642 C-1.31234652,8.367263 1.48878225,11.0956 3.48028236,9.534822 L3.48958818,9.537847 Z" id="Tracciato_757"></path>
                </g>
                <g id="Raggruppa_734" transform="translate(16.843986, 0.000000)" fill="#DDDDDD">
                    <path d="M1.51668075,4.08138439 C13.8705728,7.39607908 25.1002075,21.7640428 32.2075721,31.7113445 C39.5101464,42.0542806 45.131293,53.4766691 48.8646485,65.559169 C49.6981477,68.0443826 53.7105763,67.0798774 52.8900022,64.453198 C48.6678516,50.5867688 41.9944334,37.5808829 33.1832178,26.0464631 C25.6881805,16.2374091 14.9980582,3.3901533 2.64416735,0.0754584016 C1.53259676,-0.22994664 0.382710594,0.419230631 0.0758243864,1.52543657 C-0.231061821,2.63164228 0.421263557,3.77597917 1.53283388,4.08138439 L1.51668075,4.08138439 Z" id="Tracciato_758"></path>
                </g>
                <g id="Raggruppa_736" transform="translate(51.270582, 65.717220)" fill="#DDDDDD">
                    <path d="M3.2558364,13.791458 C8.7814818,11.3053318 13.6378269,7.7572264 17.484102,3.3961074 C19.21158,1.44584532 16.1884926,-1.28149784 14.4710568,0.67481148 C10.9247094,4.77846096 6.4017549,8.10908742 1.2370968,10.420074 C-1.49473017,11.5902318 0.805227048,14.8376438 3.24579294,13.7975054 L3.2558364,13.791458 Z" id="Tracciato_759"></path>
                </g>
                <g id="Raggruppa_739" transform="translate(10.833235, 1.379538)" fill="#DDDDDD">
                    <g id="Raggruppa_738" transform="translate(0.000000, -0.000000)">
                        <path d="M0.0139625416,2.01497877 C-0.398578751,18.0864691 8.3959064,34.1547079 17.7404461,46.5904399 C26.5349314,58.32698 38.9015777,67.273293 54.018496,66.9936182 C55.1252464,66.9492783 56,66.0240137 56,64.8976921 C56,63.7713705 55.1252464,62.8461072 54.018496,62.8017599 C38.7640624,63.081438 26.9474727,53.0196835 18.7030424,40.8636283 C11.1461812,29.5433418 3.86115016,16.1287512 4.13617736,2.01497877 C4.09257408,0.889530793 3.18267925,0 2.07506992,0 C0.967460928,0 0.0575661576,0.889530793 0.0139625416,2.01497877 L0.0139625416,2.01497877 Z" id="Tracciato_760"></path>
                    </g>
                </g>
                <g id="Raggruppa_740" transform="translate(1.958284, 19.536068)" fill="#DDDDDD">
                    <path d="M3.42967128,9.3350464 C5.51343696,6.97926 8.0727324,5.043408 10.956718,3.6415878 C13.3283868,2.5817668 11.235738,-0.8595714 8.86406928,0.20024983 C5.6209488,1.6545464 2.7627288,3.781224 0.499962912,6.423619 C-1.17415613,8.4107834 1.75555224,11.322211 3.41993808,9.3350464 L3.42967128,9.3350464 Z" id="Tracciato_761"></path>
                </g>
                <g id="Raggruppa_742" transform="translate(0.277505, 10.919832)" fill="#DDDDDD">
                    <path d="M2.97887564,8.6149305 C5.5051854,6.6016557 8.38863155,5.1266988 11.4639725,4.27458528 C12.5778584,3.95472303 13.2315443,2.75621652 12.9240176,1.59764616 C12.6164922,0.439075737 11.4642099,-0.240831693 10.3503239,0.079030413 C6.9612634,1.10553206 3.76314159,2.71978866 0.890784245,4.8537468 C-1.1973071,6.4464417 0.751578204,10.2076245 2.97887564,8.6149305 L2.97887564,8.6149305 Z" id="Tracciato_762"></path>
                </g>
                <g id="Raggruppa_744" transform="translate(15.729829, 43.548002)" fill="#DDDDDD">
                    <path d="M3.6030579,9.543716 C6.44875842,7.3975414 9.4462303,5.248427 12.2982539,3.1022525 C14.3376727,1.5852305 11.4824866,-1.0666179 9.4525535,0.456284 C6.6068522,2.6024586 3.60938136,4.751573 0.75735712,6.8977475 C-1.41486098,8.414769 1.57312467,11.066618 3.6030579,9.543716 Z" id="Tracciato_763"></path>
                </g>
                <g id="Raggruppa_746" transform="translate(24.689125, 54.346562)" fill="#DDDDDD">
                    <path d="M2.8638533,9.659271 L9.091794,4.0674785 C9.668792,3.6627907 10.015576,2.9249287 9.999462,2.1362065 C9.983348,1.3474843 9.6068317,0.6299804 9.0139705,0.25821958 C8.42111,-0.11354129 7.703668,-0.08201792 7.1361464,0.34072854 L0.90820625,5.932522 C0.33120822,6.3372093 -0.015575521,7.0750713 0.0005380754,7.8637934 C0.016651672,8.652516 0.39316855,9.3700194 0.9860294,9.74178 C1.5788902,10.113541 2.2963318,10.082018 2.8638533,9.659271 Z" id="Tracciato_764"></path>
                </g>
                <g id="Raggruppa_748" transform="translate(39.556950, 64.542041)" fill="#DDDDDD">
                    <path d="M3.1103417,9.435548 C5.178484,7.3102117 7.359948,5.3071547 9.439422,3.1818184 C11.139264,1.5543346 8.589501,-1.1853115 6.889658,0.56154042 C4.8186836,2.686877 2.640052,4.6899337 0.56057815,6.818182 C-1.1392643,8.445665 1.4104994,11.185311 3.1103417,9.438459 L3.1103417,9.435548 Z" id="Tracciato_765"></path>
                </g>
                <g id="Raggruppa_751" transform="translate(17.399924, 8.479357)" fill="#DDDDDD">
                    <g id="Raggruppa_750" transform="translate(0.000000, -0.000000)">
                        <path d="M0.6456744,3.38730834 C3.3393012,5.80666944 5.8942857,8.35859739 8.5879128,10.7912142 C8.423499,9.94651437 8.3285496,9.08967033 8.3040252,8.22934437 C5.4684552,12.7863598 3.9070755,18.6259671 7.7362509,23.1829825 C9.1168794,24.8500746 11.0152611,26.0032204 13.126806,26.457405 C14.0706681,26.5285488 15.0185145,26.5285488 15.962376,26.457405 C16.672095,26.3148931 17.2398681,26.0298741 17.9429841,25.8873631 C25.743279,24.6047708 27.162714,27.5974854 22.056048,34.7163726 C19.504365,35.7106292 20.636613,39.8434296 23.1915951,38.8458564 C25.8757962,38.0811171 28.080561,36.1545499 29.205345,33.5909301 C30.330129,31.0273119 30.257772,28.0936672 29.007981,25.5890868 C27.485682,22.9728213 24.7840278,21.2705824 21.7754619,21.0320721 C20.7830448,21.0088414 19.7902392,21.056465 18.804549,21.174582 C15.401205,23.0272146 12.4203891,21.6021117 9.8687061,17.19755 C9.951198,14.8773542 10.744257,12.6391266 12.139803,10.7879012 C12.5505396,9.95137143 12.4397376,8.95146798 11.8559154,8.22603015 C9.1622892,5.80666944 6.6073044,3.25474071 3.9136779,0.822123354 C1.6425804,-1.45804121 -1.33493364,1.5346748 0.65227641,3.38399451 L0.6456744,3.38730834 Z" id="Tracciato_766"></path>
                    </g>
                </g>
                <g id="Raggruppa_752" transform="translate(42.836155, 41.144625)" fill="#DDDDDD">
                    <path d="M0.4626192,3.75235328 C2.627623,6.63948259 4.6623123,9.3854488 6.8243545,12.2725789 C8.3525926,14.4404468 11.151401,11.2642678 9.4898856,9.2476462 C7.327844,6.36051702 5.290193,3.61455094 3.125189,0.727421201 C1.5969509,-1.44044685 -1.07450396,1.73573205 0.45965753,3.75235328 L0.4626192,3.75235328 Z" id="Tracciato_767"></path>
                </g>
                <path d="M11.6082221,3.5887059 C12.4438829,11.4066849 14.2940598,19.0792322 17.1109979,26.4083169 C20.686683,35.3133737 26.8777055,51.3165684 42.9698855,60.5001084 C49.897579,64.3730634 57.620151,66.5646714 65.528389,66.9020334 C63.739407,70.4012987 61.086172,73.3730432 57.826424,75.5286047 C55.5441388,76.9748334 53.0314331,78.0101754 50.399756,78.5887059 C42.1401475,76.1106084 34.36787,72.2025009 27.4283043,67.0380407 C16.0136309,58.9843434 7.47417695,47.4181562 3.08035921,34.0601874 C0.459139685,25.3176347 -0.152913497,16.0848414 1.29091649,7.06653495 C4.59770426,5.81335073 8.03253793,4.69940921 11.6082221,3.5887059 Z" id="Tracciato_779" fill="#0CF2B4" opacity="0.15"></path>
            </g>
        </g>
    </g>
</svg>