<?xml version="1.0" encoding="UTF-8"?>
<svg width="158px" height="158px" viewBox="0 0 158 158" version="1.1" xmlns="http://www.w3.org/2000/svg" xmlns:xlink="http://www.w3.org/1999/xlink">
    <title>noun-star-5336439 copy</title>
    <g id="User-Flow-1-Complete" stroke="none" stroke-width="1" fill="none" fill-rule="evenodd">
        <g id="01-Homepage" transform="translate(45.000000, -638.000000)" fill="#FFFFFF" fill-rule="nonzero">
            <g id="noun-star-5336439-copy" transform="translate(-45.000000, 638.000000)">
                <path d="M157.921,79.2528 C157.921,79.237 157.921,79.237 157.921,79.2528 C157.9526,79.2212 157.9684,79.1738 157.9842,79.1422 C157.9842,79.1264 157.9842,79.1264 157.9842,79.1106 C157.9842,79.079 158,79.0316 158,79 C158,78.9684 158,78.921 157.9842,78.8894 C157.9842,78.8736 157.9842,78.8736 157.9842,78.8578 C157.9684,78.8262 157.9526,78.7946 157.9368,78.763 C157.9368,78.763 157.9368,78.763 157.9368,78.763 C157.921,78.7314 157.8894,78.7156 157.8578,78.684 C157.8578,78.684 157.842,78.6682 157.842,78.6682 C157.8104,78.6524 157.7788,78.6208 157.7472,78.6208 C157.7472,78.6208 157.7472,78.6208 157.7472,78.6208 L124.978,66.7076 C124.978,66.7076 124.978,66.7076 124.978,66.7076 L116.288,63.5476 L134.9478,23.6052 C134.9478,23.6052 134.9478,23.5894 134.9478,23.5894 C134.9478,23.5736 134.9478,23.5578 134.9636,23.542 C134.9794,23.5104 134.9794,23.4788 134.9794,23.4314 C134.9794,23.4156 134.9794,23.3998 134.9794,23.384 C134.9794,23.3524 134.9636,23.3208 134.9636,23.2892 C134.9636,23.2734 134.9478,23.2576 134.9478,23.2418 C134.932,23.1944 134.9004,23.147 134.8688,23.1154 C134.8372,23.0838 134.7898,23.0522 134.7424,23.0364 C134.7266,23.0364 134.7108,23.0206 134.695,23.0206 C134.6634,23.0048 134.6318,23.0048 134.6002,23.0048 C134.5844,23.0048 134.5686,23.0048 134.5528,23.0048 C134.5212,23.0048 134.4738,23.0206 134.4422,23.0206 C134.4264,23.0206 134.4106,23.0206 134.4106,23.0364 C134.4106,23.0364 134.3948,23.0364 134.3948,23.0364 L94.4366,41.712 L89.4912,28.0924 L79.395,0.2844 C79.395,0.2844 79.395,0.2844 79.395,0.2844 C79.3792,0.2528 79.3634,0.2212 79.3476,0.1896 C79.3476,0.1896 79.3318,0.1738 79.3318,0.1738 C79.316,0.1422 79.2844,0.1264 79.2528,0.0948 C79.2528,0.0948 79.2528,0.0948 79.237,0.0948 C79.2054,0.079 79.1738,0.0632 79.1422,0.0474 C79.1264,0.0474 79.1264,0.0474 79.1106,0.0474 C79.079,0 79.0474,0 79,0 C78.9526,0 78.921,0 78.8894,0.0158 C78.8736,0.0158 78.8736,0.0158 78.8578,0.0158 C78.8262,0.0316 78.7946,0.0474 78.763,0.0632 C78.763,0.0632 78.763,0.0632 78.7472,0.0632 C78.7156,0.079 78.6998,0.1106 78.6682,0.1422 C78.6682,0.1422 78.6524,0.158 78.6524,0.158 C78.6366,0.1896 78.605,0.2212 78.605,0.2528 C78.605,0.2528 78.605,0.2528 78.605,0.2528 L63.5476,41.712 L50.4178,35.5816 L23.6052,23.0522 C23.6052,23.0522 23.5894,23.0522 23.5894,23.0522 C23.5736,23.0522 23.5578,23.0522 23.5578,23.0364 C23.5262,23.0206 23.4946,23.0206 23.4472,23.0206 C23.4314,23.0206 23.4156,23.0206 23.3998,23.0206 C23.3682,23.0206 23.3366,23.0364 23.305,23.0364 C23.2892,23.0364 23.2734,23.0522 23.2576,23.0522 C23.2102,23.068 23.1628,23.0996 23.1312,23.1312 C23.0996,23.1628 23.068,23.2102 23.0522,23.2576 C23.0522,23.2734 23.0364,23.2892 23.0364,23.305 C23.0206,23.3366 23.0206,23.3682 23.0206,23.3998 C23.0206,23.4156 23.0206,23.4314 23.0206,23.4472 C23.0206,23.4788 23.0364,23.5104 23.0364,23.5578 C23.0364,23.5736 23.0364,23.5894 23.0522,23.6052 C23.0522,23.6052 23.0522,23.621 23.0522,23.621 L41.712,63.5476 L0.2844,78.605 C0.2844,78.605 0.2844,78.605 0.2844,78.605 C0.2528,78.6208 0.2212,78.6366 0.1896,78.6524 C0.1896,78.6524 0.1738,78.6682 0.1738,78.6682 C0.1422,78.684 0.1264,78.7156 0.0948,78.7472 C0.0948,78.7472 0.0948,78.7472 0.0948,78.763 C0.079,78.7946 0.0632,78.8262 0.0474,78.8578 C0.0474,78.8736 0.0474,78.8736 0.0474,78.8894 C0.0158,78.921 0,78.9526 0,79 C0,79.0474 0,79.079 0.0158,79.1106 C0.0158,79.1264 0.0158,79.1264 0.0158,79.1422 C0.0316,79.1738 0.0474,79.2054 0.0632,79.237 C0.0632,79.237 0.0632,79.237 0.0632,79.2528 C0.079,79.2844 0.1106,79.3002 0.1422,79.3318 C0.1422,79.3318 0.158,79.3476 0.158,79.3476 C0.1896,79.3634 0.2212,79.395 0.2528,79.395 C0.2528,79.395 0.2528,79.395 0.2528,79.395 L41.6804,94.4524 L23.0522,134.379 C23.0522,134.379 23.0522,134.379 23.0522,134.3948 C23.0522,134.4106 23.0522,134.4264 23.0364,134.4422 C23.0206,134.4738 23.0206,134.5054 23.0206,134.5528 C23.0206,134.5686 23.0206,134.5844 23.0206,134.6002 C23.0206,134.6318 23.0364,134.6634 23.0364,134.695 C23.0364,134.7108 23.0522,134.7266 23.0522,134.7424 C23.068,134.7898 23.0996,134.8372 23.1312,134.8688 C23.1786,134.9162 23.226,134.9478 23.2734,134.9636 C23.2734,134.9636 23.2734,134.9636 23.2734,134.9636 C23.3208,134.9794 23.384,134.9952 23.4314,134.9952 C23.4314,134.9952 23.4314,134.9952 23.4314,134.9952 C23.4314,134.9952 23.4314,134.9952 23.4314,134.9952 C23.4788,134.9952 23.5262,134.9794 23.5736,134.9636 C23.5736,134.9636 23.5894,134.9636 23.5894,134.9636 C23.5894,134.9636 23.6052,134.9636 23.6052,134.9636 L63.5476,116.288 L78.5892,157.7156 C78.5892,157.7156 78.5892,157.7156 78.5892,157.7156 C78.605,157.7472 78.6208,157.7788 78.6366,157.8104 C78.6366,157.8104 78.6524,157.8262 78.6524,157.8262 C78.6682,157.8578 78.6998,157.8736 78.7314,157.9052 C78.7314,157.9052 78.7314,157.9052 78.7472,157.9052 C78.7788,157.921 78.8104,157.9368 78.842,157.9526 C78.8578,157.9526 78.8578,157.9526 78.8736,157.9526 C78.921,158 78.9526,158 79,158 C79.0474,158 79.079,158 79.1106,157.9842 C79.1264,157.9842 79.1264,157.9842 79.1422,157.9842 C79.1738,157.9684 79.2054,157.9526 79.237,157.9368 C79.237,157.9368 79.237,157.9368 79.2528,157.9368 C79.2844,157.921 79.3002,157.8894 79.3318,157.8578 C79.3318,157.8578 79.3476,157.842 79.3476,157.842 C79.3634,157.8104 79.395,157.7788 79.395,157.7472 C79.395,157.7472 79.395,157.7472 79.395,157.7472 L94.4366,116.3196 L134.379,134.9794 C134.379,134.9794 134.3948,134.9794 134.3948,134.9794 C134.3948,134.9794 134.4106,134.9794 134.4106,134.9794 C134.458,134.9952 134.5054,135.011 134.5528,135.011 C134.5528,135.011 134.5528,135.011 134.5528,135.011 C134.5528,135.011 134.5528,135.011 134.5528,135.011 C134.5528,135.011 134.5528,135.011 134.5528,135.011 C134.6002,135.011 134.6634,134.9952 134.7108,134.9794 C134.7108,134.9794 134.7108,134.9794 134.7108,134.9794 C134.7582,134.9636 134.8056,134.932 134.853,134.8846 C134.8846,134.853 134.9162,134.8056 134.932,134.7582 C134.932,134.7424 134.9478,134.7266 134.9478,134.7108 C134.9636,134.6792 134.9636,134.6476 134.9636,134.616 C134.9636,134.6002 134.9636,134.5844 134.9636,134.5686 C134.9636,134.537 134.9478,134.5054 134.9478,134.458 C134.9478,134.4422 134.9478,134.4264 134.932,134.4106 C134.932,134.4106 134.932,134.3948 134.932,134.3948 L116.288,94.4366 L157.7156,79.395 C157.7156,79.395 157.7156,79.395 157.7156,79.395 C157.7472,79.3792 157.7788,79.3634 157.8104,79.3476 C157.8104,79.3476 157.8262,79.3318 157.8262,79.3318 C157.8736,79.3002 157.8894,79.2686 157.921,79.2528 Z M124.6936,67.5134 L155.1718,78.5892 L109.2728,78.5892 L115.9246,64.3376 L124.6936,67.5134 Z M58.5548,57.9544 L64.0374,42.8654 L78.5734,49.6594 L78.5734,77.973 L78.0994,77.499 L58.5548,57.9544 Z M87.8322,45.7252 L93.9626,42.8654 L99.4452,57.9544 L79.4266,77.973 L79.4266,49.6594 L87.8322,45.7252 Z M80.027,78.5734 L80.8644,77.736 L100.0614,58.539 L115.1504,64.0216 L108.3564,78.5734 L80.027,78.5734 Z M77.973,78.5734 L49.6594,78.5734 L42.8654,64.0374 L57.9544,58.5548 L77.973,78.5734 Z M77.973,79.4266 L57.9544,99.4452 L42.8654,93.9626 L49.6594,79.4266 L77.973,79.4266 Z M78.5734,80.027 L78.5734,108.3406 L64.0374,115.1346 L58.5548,100.0456 L78.5734,80.027 Z M79.4266,80.027 L99.4452,100.0456 L93.9626,115.1346 L79.4266,108.3406 L79.4266,80.027 Z M100.0456,99.4452 L80.027,79.4266 L108.3406,79.4266 L115.1346,93.9626 L100.0456,99.4452 Z M100.7092,57.8912 L133.1624,25.438 L115.4822,63.2632 L100.7092,57.8912 Z M103.1898,38.5678 C103.1898,38.5678 103.1898,38.5678 103.1898,38.5678 L132.562,24.8376 L100.1088,57.2908 L94.7368,42.502 L103.1898,38.5678 Z M87.4846,44.9668 L79.4266,48.7272 L79.4266,2.8282 L88.7012,28.3768 C88.7012,28.3768 88.7012,28.3768 88.7012,28.3768 L93.6782,42.0754 L87.4846,44.9668 Z M78.5734,2.8282 L78.5734,48.7272 L64.3218,42.0754 L78.5734,2.8282 Z M57.8912,57.2908 L25.438,24.8376 L50.0702,36.34 L63.2632,42.502 L57.8912,57.2908 Z M24.8376,25.438 L57.2908,57.8912 L42.502,63.2632 L24.8376,25.438 Z M48.7272,78.5734 L2.8282,78.5734 L42.0754,64.3218 L48.7272,78.5734 Z M2.8282,79.4266 L48.7272,79.4266 L42.0754,93.6782 L2.8282,79.4266 Z M57.2908,100.1088 L24.8376,132.562 L42.502,94.7368 L57.2908,100.1088 Z M25.438,133.1624 L57.8912,100.7092 L63.2632,115.498 L25.438,133.1624 Z M78.5734,109.2728 L78.5734,155.1718 L64.3218,115.9246 L78.5734,109.2728 Z M79.4266,155.1718 L79.4266,109.2728 L93.6782,115.9246 L79.4266,155.1718 Z M100.1088,100.7092 L132.562,133.1624 L94.7368,115.4822 L100.1088,100.7092 Z M133.1624,132.562 L100.6934,100.1088 L115.4822,94.7368 L133.1624,132.562 Z M109.2728,79.4266 L155.1718,79.4266 L115.9246,93.6782 L109.2728,79.4266 Z" id="Shape"></path>
            </g>
        </g>
    </g>
</svg>